<svg width="820" height="832" viewBox="0 0 820 832" fill="none" xmlns="http://www.w3.org/2000/svg">
<rect y="406.921" width="872.039" height="284.37" rx="40" transform="rotate(-46.4073 0 406.921)" fill="#183F55"/>
<path d="M45.61 884.039C29.6101 868.807 28.9881 843.488 44.2207 827.488L586.426 257.97C601.659 241.97 626.978 241.348 642.978 256.581L790.995 397.499C806.995 412.732 807.617 438.051 792.384 454.051L250.179 1023.57C234.946 1039.57 209.627 1040.19 193.627 1024.96L45.61 884.039Z" fill="#FF894E"/>
<path d="M344.728 1005C332.728 993.579 332.261 974.59 343.686 962.59L729.133 557.728C740.557 545.728 759.547 545.261 771.546 556.686L798.139 582.003C810.139 593.427 810.606 612.417 799.181 624.416L413.734 1029.28C402.31 1041.28 383.32 1041.75 371.32 1030.32L344.728 1005Z" fill="#183F55"/>
<path d="M21.7278 250.004C9.72789 238.579 9.26135 219.59 20.6858 207.59L406.133 -197.272C417.557 -209.272 436.547 -209.739 448.546 -198.314L475.139 -172.997C487.139 -161.573 487.606 -142.583 476.181 -130.584L90.734 274.279C79.3096 286.279 60.3203 286.746 48.3204 275.321L21.7278 250.004Z" fill="#FF894E"/>
</svg>
