<svg width="1280" height="356" viewBox="0 0 1280 356" fill="none" xmlns="http://www.w3.org/2000/svg">
<rect x="-213" y="337.148" width="596" height="20" rx="10" transform="rotate(-25.7734 -213 337.148)" fill="#183F55"/>
<rect x="-127" y="337.148" width="596" height="20" rx="10" transform="rotate(-25.7734 -127 337.148)" fill="#183F55"/>
<rect x="-45" y="337.148" width="596" height="20" rx="10" transform="rotate(-25.7734 -45 337.148)" fill="#183F55"/>
<rect width="596" height="20" rx="10" transform="matrix(-0.900521 -0.434813 -0.434813 0.900521 500.407 259.148)" fill="#FF894E"/>
<rect width="596" height="20" rx="10" transform="matrix(-0.900521 -0.434813 -0.434813 0.900521 414.407 259.148)" fill="#FF894E"/>
<rect width="596" height="20" rx="10" transform="matrix(-0.900521 -0.434813 -0.434813 0.900521 332.407 259.148)" fill="#FF894E"/>
<rect width="596" height="20" rx="10" transform="matrix(-0.900521 -0.434813 -0.434813 0.900521 1494.41 337.148)" fill="#183F55"/>
<rect width="596" height="20" rx="10" transform="matrix(-0.900521 -0.434813 -0.434813 0.900521 1408.41 337.148)" fill="#183F55"/>
<rect width="596" height="20" rx="10" transform="matrix(-0.900521 -0.434813 -0.434813 0.900521 1326.41 337.148)" fill="#183F55"/>
<rect x="781" y="259.148" width="596" height="20" rx="10" transform="rotate(-25.7734 781 259.148)" fill="#FF894E"/>
<rect x="867" y="259.148" width="596" height="20" rx="10" transform="rotate(-25.7734 867 259.148)" fill="#FF894E"/>
<rect x="949" y="259.148" width="596" height="20" rx="10" transform="rotate(-25.7734 949 259.148)" fill="#FF894E"/>
</svg>
