<svg width="25" height="30" viewBox="0 0 25 30" fill="none" xmlns="http://www.w3.org/2000/svg">
<g clip-path="url(#clip0_126_486)">
<path fill-rule="evenodd" clip-rule="evenodd" d="M15.625 23.4375C15.625 23.6861 15.5427 23.9246 15.3962 24.1004C15.2497 24.2762 15.051 24.375 14.8438 24.375H2.34375C2.13655 24.375 1.93784 24.2762 1.79132 24.1004C1.64481 23.9246 1.5625 23.6861 1.5625 23.4375V6.5625C1.5625 6.31386 1.64481 6.0754 1.79132 5.89959C1.93784 5.72377 2.13655 5.625 2.34375 5.625H14.8438C15.051 5.625 15.2497 5.72377 15.3962 5.89959C15.5427 6.0754 15.625 6.31386 15.625 6.5625V10.3125C15.625 10.5611 15.7073 10.7996 15.8538 10.9754C16.0003 11.1512 16.199 11.25 16.4062 11.25C16.6135 11.25 16.8122 11.1512 16.9587 10.9754C17.1052 10.7996 17.1875 10.5611 17.1875 10.3125V6.5625C17.1875 5.81658 16.9406 5.10121 16.501 4.57376C16.0615 4.04632 15.4654 3.75 14.8438 3.75H2.34375C1.72215 3.75 1.12601 4.04632 0.686468 4.57376C0.24693 5.10121 0 5.81658 0 6.5625L0 23.4375C0 24.1834 0.24693 24.8988 0.686468 25.4262C1.12601 25.9537 1.72215 26.25 2.34375 26.25H14.8438C15.4654 26.25 16.0615 25.9537 16.501 25.4262C16.9406 24.8988 17.1875 24.1834 17.1875 23.4375V19.6875C17.1875 19.4389 17.1052 19.2004 16.9587 19.0246C16.8122 18.8488 16.6135 18.75 16.4062 18.75C16.199 18.75 16.0003 18.8488 15.8538 19.0246C15.7073 19.2004 15.625 19.4389 15.625 19.6875V23.4375Z" fill="black"/>
<path fill-rule="evenodd" clip-rule="evenodd" d="M24.7719 15.6638C24.8446 15.5767 24.9024 15.4732 24.9417 15.3593C24.9811 15.2454 25.0014 15.1233 25.0014 15C25.0014 14.8767 24.9811 14.7546 24.9417 14.6407C24.9024 14.5268 24.8446 14.4234 24.7719 14.3363L20.0844 8.71127C19.9377 8.53524 19.7387 8.43634 19.5312 8.43634C19.3238 8.43634 19.1248 8.53524 18.9781 8.71127C18.8314 8.88731 18.749 9.12607 18.749 9.37502C18.749 9.62398 18.8314 9.86274 18.9781 10.0388L22.3328 14.0625H8.59375C8.38655 14.0625 8.18784 14.1613 8.04132 14.3371C7.89481 14.5129 7.8125 14.7514 7.8125 15C7.8125 15.2487 7.89481 15.4871 8.04132 15.6629C8.18784 15.8388 8.38655 15.9375 8.59375 15.9375H22.3328L18.9781 19.9613C18.8314 20.1373 18.749 20.3761 18.749 20.625C18.749 20.874 18.8314 21.1127 18.9781 21.2888C19.1248 21.4648 19.3238 21.5637 19.5312 21.5637C19.7387 21.5637 19.9377 21.4648 20.0844 21.2888L24.7719 15.6638Z" fill="black"/>
</g>
<defs>
<clipPath id="clip0_126_486">
<rect width="25" height="30" fill="white"/>
</clipPath>
</defs>
</svg>
