<svg width="31" height="28" viewBox="0 0 31 28" fill="none" xmlns="http://www.w3.org/2000/svg">
<g clip-path="url(#clip0_130_506)">
<path d="M22.5153 18.1021C24.3611 15.7898 25.1878 12.9229 24.83 10.0751C24.4723 7.22725 22.9564 4.60843 20.5857 2.74256C18.215 0.876696 15.1643 -0.0986095 12.0439 0.0117686C8.92356 0.122147 5.96365 1.31007 3.75638 3.33787C1.5491 5.36568 0.257229 8.08382 0.139229 10.9485C0.0212282 13.8132 1.0858 16.6131 3.11995 18.7882C5.15411 20.9632 8.00784 22.353 11.1102 22.6794C14.2126 23.0058 17.3348 22.2448 19.8522 20.5486H19.8503C19.9062 20.6186 19.9685 20.6857 20.0371 20.7498L27.3762 27.4873C27.7336 27.8157 28.2185 28.0003 28.7242 28.0004C29.2299 28.0006 29.7149 27.8163 30.0726 27.4882C30.4303 27.1601 30.6313 26.7149 30.6315 26.2507C30.6317 25.7865 30.431 25.3412 30.0736 25.0128L22.7345 18.2753C22.6664 18.212 22.5931 18.1552 22.5153 18.1021ZM23.0071 11.3751C23.0071 12.6391 22.7359 13.8907 22.209 15.0584C21.6821 16.2262 20.9098 17.2872 19.9363 18.181C18.9627 19.0748 17.8069 19.7837 16.5349 20.2674C15.2629 20.7511 13.8995 21.0001 12.5227 21.0001C11.1459 21.0001 9.78253 20.7511 8.51051 20.2674C7.23849 19.7837 6.0827 19.0748 5.10914 18.181C4.13557 17.2872 3.3633 16.2262 2.83641 15.0584C2.30952 13.8907 2.03833 12.6391 2.03833 11.3751C2.03833 8.82238 3.14293 6.37422 5.10914 4.56918C7.07534 2.76414 9.74208 1.75008 12.5227 1.75008C15.3033 1.75008 17.9701 2.76414 19.9363 4.56918C21.9025 6.37422 23.0071 8.82238 23.0071 11.3751Z" fill="white"/>
</g>
<defs>
<clipPath id="clip0_130_506">
<rect width="30.5" height="28" fill="white" transform="translate(0.132324)"/>
</clipPath>
</defs>
</svg>
